<?xml version="1.0" encoding="UTF-8" standalone="no"?>
<svg width="32px" height="32px" viewBox="0 0 32 32" version="1.1" xmlns="http://www.w3.org/2000/svg" xmlns:xlink="http://www.w3.org/1999/xlink">
    <!-- Generator: Sketch 48 (47235) - http://www.bohemiancoding.com/sketch -->
    <title>Codepen</title>
    <desc>Created with Sketch.</desc>
    <defs></defs>
    <g id="Mobile-Portrait" stroke="none" stroke-width="1" fill="none" fill-rule="evenodd" transform="translate(-95.000000, -2604.000000)">
        <g id="Footer" transform="translate(51.000000, 2558.000000)" fill="#444444">
            <g id="Codepen" transform="translate(44.000000, 46.000000)">
                <polygon id="Fill-240" points="9 15 9 17.301 10.72 16.15"></polygon>
                <polygon id="Fill-241" points="10 18.609 15.387 22.2 15.387 18.993 12.406 17"></polygon>
                <polygon id="Fill-242" points="22.387 13.591 17 10 17 13.207 19.981 15.201"></polygon>
                <polygon id="Fill-243" points="16.432 15 14 16.626 16.432 18.253 18.864 16.626"></polygon>
                <polygon id="Fill-244" points="15.387 13.207 15.387 10 10 13.591 12.406 15.201"></polygon>
                <polygon id="Fill-245" points="17 18.993 17 22.2 22.387 18.609 19.981 17"></polygon>
                <path d="M24,18.437 C24,18.467 23.998,18.497 23.994,18.527 C23.992,18.537 23.99,18.547 23.988,18.556 C23.985,18.576 23.981,18.595 23.976,18.614 C23.973,18.626 23.969,18.636 23.965,18.647 C23.96,18.664 23.954,18.681 23.948,18.698 C23.943,18.709 23.938,18.72 23.932,18.731 C23.925,18.747 23.918,18.762 23.909,18.777 C23.903,18.788 23.896,18.798 23.889,18.809 C23.88,18.823 23.871,18.837 23.86,18.85 C23.853,18.861 23.845,18.871 23.837,18.88 C23.826,18.893 23.815,18.905 23.803,18.917 C23.794,18.926 23.785,18.936 23.775,18.944 C23.763,18.956 23.75,18.966 23.736,18.977 C23.726,18.985 23.716,18.993 23.705,19 C23.701,19.003 23.698,19.006 23.694,19.009 L16.381,23.884 C16.266,23.961 16.133,24 16,24 C15.867,24 15.734,23.961 15.619,23.884 L8.306,19.009 C8.302,19.006 8.299,19.003 8.295,19 C8.284,18.993 8.274,18.985 8.264,18.977 C8.25,18.966 8.237,18.956 8.225,18.944 C8.215,18.936 8.206,18.926 8.197,18.917 C8.185,18.905 8.174,18.893 8.163,18.88 C8.155,18.871 8.147,18.861 8.139,18.85 C8.129,18.837 8.12,18.823 8.111,18.809 C8.104,18.798 8.097,18.788 8.091,18.777 C8.082,18.762 8.075,18.747 8.068,18.731 C8.062,18.72 8.057,18.709 8.052,18.698 C8.045,18.681 8.04,18.664 8.035,18.647 C8.031,18.636 8.027,18.626 8.024,18.614 C8.019,18.595 8.015,18.576 8.012,18.556 C8.01,18.547 8.008,18.537 8.006,18.527 C8.002,18.497 8,18.467 8,18.437 L8,13.562 C8,13.532 8.002,13.502 8.006,13.472 C8.008,13.462 8.01,13.453 8.012,13.443 C8.015,13.423 8.019,13.404 8.024,13.385 C8.027,13.374 8.031,13.363 8.035,13.352 C8.04,13.335 8.045,13.318 8.052,13.302 C8.057,13.29 8.062,13.279 8.068,13.268 C8.075,13.252 8.082,13.237 8.091,13.222 C8.097,13.211 8.104,13.201 8.111,13.19 C8.12,13.176 8.129,13.162 8.139,13.149 C8.147,13.139 8.155,13.129 8.163,13.119 C8.174,13.106 8.185,13.094 8.197,13.082 C8.206,13.073 8.215,13.063 8.225,13.055 C8.237,13.044 8.25,13.033 8.264,13.022 C8.274,13.014 8.284,13.006 8.295,12.999 C8.299,12.996 8.302,12.993 8.306,12.99 L15.619,8.115 C15.85,7.961 16.15,7.961 16.381,8.115 L23.694,12.99 C23.698,12.993 23.701,12.996 23.705,12.999 C23.716,13.006 23.726,13.014 23.736,13.022 C23.75,13.033 23.763,13.044 23.775,13.055 C23.785,13.063 23.794,13.073 23.803,13.082 C23.815,13.094 23.826,13.106 23.837,13.119 C23.845,13.129 23.853,13.139 23.86,13.149 C23.871,13.162 23.88,13.176 23.889,13.19 C23.896,13.201 23.903,13.211 23.909,13.222 C23.918,13.237 23.925,13.252 23.932,13.268 C23.938,13.279 23.943,13.29 23.948,13.302 C23.954,13.318 23.96,13.335 23.965,13.352 C23.969,13.363 23.973,13.374 23.976,13.385 C23.981,13.404 23.985,13.423 23.988,13.443 C23.99,13.453 23.992,13.462 23.994,13.472 C23.998,13.502 24,13.532 24,13.562 L24,18.437 Z M16,0 C7.163,0 0,7.163 0,16 C0,24.836 7.163,32 16,32 C24.837,32 32,24.836 32,16 C32,7.163 24.837,0 16,0 L16,0 Z" id="Fill-246"></path>
            </g>
        </g>
    </g>
</svg>