<?xml version="1.0" encoding="UTF-8" standalone="no"?>
<svg width="50px" height="50px" viewBox="0 0 50 50" version="1.1" xmlns="http://www.w3.org/2000/svg" xmlns:xlink="http://www.w3.org/1999/xlink">
    <!-- Generator: Sketch 48 (47235) - http://www.bohemiancoding.com/sketch -->
    <title>Shape</title>
    <desc>Created with Sketch.</desc>
    <defs></defs>
    <g id="Page-1" stroke="none" stroke-width="1" fill="none" fill-rule="evenodd">
        <g id="noun_1287436_cc" fill="#000000" fill-rule="nonzero">
            <path d="M28.5956611,50 C28.4528167,47.9981227 26.7208285,46.4998736 24.7388626,46.6442832 C22.9729488,46.7688364 21.5427194,48.214737 21.4195161,50 C20.0982055,49.8194881 18.7929649,49.5126178 17.509151,49.1172967 C18.2412285,47.2399726 17.3305955,45.127983 15.491474,44.387884 C13.830908,43.7199899 11.9382198,44.387884 11.0454424,45.9583378 C9.92054281,45.2001877 8.88492099,44.3499765 7.90286582,43.4311708 C9.3670208,42.0773313 9.45629854,39.7667786 8.1171324,38.2865807 C6.90295509,36.9688436 4.90313365,36.7341781 3.42112311,37.7630961 C2.76046782,36.5897686 2.17123471,35.3622874 1.6891349,34.0987039 C3.5800375,33.5192606 4.65137041,31.4794758 4.07999286,29.5660493 C3.56218195,27.8331348 1.86590483,26.7482581 0.0803499688,27.0208311 C-0.0267833229,25.6850428 -0.0267833229,24.3131521 0.0803499688,22.9773638 C2.04446032,23.2842341 3.88358182,21.9123434 4.18712615,19.9285173 C4.47281493,18.139644 3.40148201,16.4247807 1.68734934,15.9012961 C2.16944916,14.6377126 2.75868226,13.4102314 3.41933756,12.2369039 C5.06204803,13.374129 7.31184716,12.9589516 8.43674672,11.2982418 C9.438443,9.79999278 9.22239086,7.79631034 7.90108026,6.5688292 C8.88313543,5.64821835 9.91875725,4.79981227 11.0436568,4.04166215 C12.025712,5.79262789 14.2219445,6.38831727 15.9539327,5.37745045 C17.5073654,4.49294198 18.1680207,2.57951551 17.5073654,0.882703347 C18.7929649,0.485577097 20.09642,0.178706813 21.4177306,0 C21.5605749,2.00187732 23.2747076,3.50012636 25.2566735,3.35571681 C27.0422284,3.23116358 28.4724578,1.78526301 28.5956611,0 C29.9169717,0.180511932 31.2222123,0.487382216 32.5060262,0.882703347 C31.7739488,2.76002744 32.6845817,4.87201704 34.5237032,5.61211596 C36.1842693,6.28001011 38.0769574,5.61211596 38.9697348,4.04166215 C40.0767789,4.79981227 41.1302562,5.65002347 42.1123114,6.5688292 C40.6481564,7.92266869 40.5588787,10.2332214 41.8980448,11.7134193 C43.1122221,13.0311564 45.1120436,13.2658219 46.5940541,12.2369039 C47.2547094,13.4102314 47.8439425,14.6377126 48.3260423,15.9012961 C46.4172842,16.4789343 45.3441657,18.5187191 45.9333988,20.4321456 C46.4512097,22.1650601 48.1474868,23.2499368 49.9330417,22.9773638 C50.0223194,24.3131521 50.0223194,25.6850428 49.9330417,27.0208311 C47.9510758,26.7139608 46.1119543,28.0858515 45.8262655,30.0696776 C45.5405767,31.8567457 46.6101241,33.5716091 48.3242568,34.0950937 C47.842157,35.3586772 47.2529238,36.5861583 46.5922685,37.7594859 C44.9495581,36.6222607 42.699759,37.0374382 41.5748594,38.6981479 C40.5731631,40.196397 40.7892152,42.2000794 42.1105258,43.4275606 C41.1284707,44.3481714 40.0749933,45.1965775 38.9679493,45.9547276 C37.9841086,44.2019567 35.7896616,43.6062674 34.0576734,44.6189393 C32.5042407,45.5034478 31.8435854,47.4168743 32.5042407,49.1136864 C31.2204267,49.5126178 29.9169717,49.8194881 28.5956611,50 Z M34,25 C34,20.032 29.968,16 25,16 C20.032,16 16,20.032 16,25 C16,29.968 20.032,34 25,34 C29.968,34 34,29.968 34,25 Z" id="Shape"></path>
        </g>
    </g>
</svg>