<?xml version="1.0" encoding="UTF-8" standalone="no"?>
<svg width="32px" height="32px" viewBox="0 0 32 32" version="1.1" xmlns="http://www.w3.org/2000/svg" xmlns:xlink="http://www.w3.org/1999/xlink">
    <!-- Generator: Sketch 48 (47235) - http://www.bohemiancoding.com/sketch -->
    <title>Git</title>
    <desc>Created with Sketch.</desc>
    <defs></defs>
    <g id="Mobile-Portrait" stroke="none" stroke-width="1" fill="none" fill-rule="evenodd" transform="translate(-141.000000, -2604.000000)">
        <g id="Footer" transform="translate(51.000000, 2558.000000)" fill="#444444">
            <path d="M108.274,68.385 C108.274,68.385 107.192,68.516 106,68.516 C104.808,68.516 103.712,68.395 103.712,68.395 C100.927,68.078 98,67.002 98,62.197 C98,60.828 98.488,59.709 99.29,58.832 C99.162,58.515 98.731,57.24 99.413,55.513 C99.413,55.513 100.466,55.176 102.862,56.799 C103.862,56.521 104.935,56.382 106.001,56.377 C107.066,56.382 108.139,56.521 109.141,56.799 C111.535,55.176 112.586,55.513 112.586,55.513 C113.27,57.24 112.84,58.515 112.711,58.832 C113.514,59.709 114,60.828 114,62.197 C114,67.014 111.068,68.075 108.274,68.385 M106,46 C97.163,46 90,53.163 90,62 C90,70.836 97.163,78 106,78 C114.836,78 122,70.836 122,62 C122,53.163 114.836,46 106,46" id="Git"></path>
        </g>
    </g>
</svg>