<?xml version="1.0" encoding="UTF-8" standalone="no"?>
<svg width="32px" height="32px" viewBox="0 0 32 32" version="1.1" xmlns="http://www.w3.org/2000/svg" xmlns:xlink="http://www.w3.org/1999/xlink">
    <!-- Generator: Sketch 48 (47235) - http://www.bohemiancoding.com/sketch -->
    <title>Twitter</title>
    <desc>Created with Sketch.</desc>
    <defs></defs>
    <g id="Mobile-Portrait" stroke="none" stroke-width="1" fill="none" fill-rule="evenodd" transform="translate(-190.000000, -2604.000000)">
        <g id="Footer" transform="translate(51.000000, 2558.000000)" fill="#444444">
            <path d="M161.362,58.737 C161.368,58.878 161.372,59.019 161.372,59.162 C161.372,63.499 158.07,68.501 152.032,68.501 C150.178,68.501 148.453,67.958 147,67.027 C147.257,67.057 147.518,67.072 147.783,67.072 C149.321,67.072 150.736,66.548 151.86,65.667 C150.423,65.641 149.211,64.692 148.793,63.388 C148.994,63.426 149.199,63.446 149.411,63.446 C149.71,63.446 150,63.406 150.276,63.331 C148.774,63.03 147.643,61.703 147.643,60.113 L147.643,60.071 C148.085,60.317 148.592,60.465 149.13,60.482 C148.249,59.893 147.669,58.888 147.669,57.75 C147.669,57.148 147.831,56.584 148.114,56.099 C149.733,58.085 152.152,59.392 154.88,59.529 C154.824,59.289 154.795,59.038 154.795,58.781 C154.795,56.968 156.265,55.498 158.077,55.498 C159.022,55.498 159.875,55.897 160.473,56.535 C161.221,56.388 161.924,56.115 162.558,55.739 C162.313,56.505 161.792,57.148 161.115,57.555 C161.779,57.475 162.411,57.299 163,57.038 C162.56,57.696 162.003,58.274 161.362,58.737 M155,46 C146.163,46 139,53.163 139,62 C139,70.836 146.163,78 155,78 C163.837,78 171,70.836 171,62 C171,53.163 163.837,46 155,46" id="Twitter"></path>
        </g>
    </g>
</svg>