<?xml version="1.0" encoding="UTF-8" standalone="no"?>
<svg width="100px" height="100px" viewBox="0 0 100 100" version="1.1" xmlns="http://www.w3.org/2000/svg" xmlns:xlink="http://www.w3.org/1999/xlink">
    <!-- Generator: Sketch 48 (47235) - http://www.bohemiancoding.com/sketch -->
    <title>Shape</title>
    <desc>Created with Sketch.</desc>
    <defs></defs>
    <g id="Page-1" stroke="none" stroke-width="1" fill="none" fill-rule="evenodd">
        <g id="noun_1287436_cc" fill="#000000" fill-rule="nonzero">
            <path d="M57.1913222,100 C56.9056334,95.9962454 53.441657,92.9997473 49.4777252,93.2885664 C45.9458977,93.5376728 43.0854388,96.429474 42.8390322,100 C40.196411,99.6389761 37.5859298,99.0252356 35.0183019,98.2345933 C36.4824569,94.4799451 34.661191,90.2559659 30.982948,88.7757681 C27.6618159,87.4399798 23.8764396,88.7757681 22.0908847,91.9166757 C19.8410856,90.4003755 17.769842,88.6999531 15.8057316,86.8623416 C18.7340416,84.1546626 18.9125971,79.5335572 16.2342648,76.5731615 C13.8059102,73.9376873 9.8062673,73.4683563 6.84224623,75.5261923 C5.52093563,73.1795372 4.34246942,70.7245749 3.3782698,68.1974078 C7.16007499,67.0385212 9.30274083,62.9589516 8.15998572,59.1320986 C7.1243639,55.6662695 3.73180966,53.4965161 0.160699938,54.0416622 C-0.0535666458,51.3700856 -0.0535666458,48.6263042 0.160699938,45.9547276 C4.08892063,46.5684682 7.76716365,43.8246868 8.3742523,39.8570345 C8.94562985,36.2792881 6.80296402,32.8495614 3.37469869,31.8025922 C4.33889831,29.2754251 5.51736452,26.8204628 6.83867512,24.4738077 C10.1240961,26.7482581 14.6236943,25.9179032 16.8734934,22.5964836 C18.876886,19.5999856 18.4447817,15.5926207 15.8021605,13.1376584 C17.7662709,11.2964367 19.8375145,9.59962454 22.0873136,8.08332431 C24.051424,11.5852558 28.4438889,12.7766345 31.9078654,10.7549009 C35.0147308,8.98588397 36.3360414,5.15903101 35.0147308,1.76540669 C37.5859298,0.971154193 40.1928399,0.357413625 42.8354611,0 C43.1211499,4.00375465 46.5494152,7.00025272 50.513347,6.71143363 C54.0844567,6.46232716 56.9449156,3.57052601 57.1913222,0 C59.8339434,0.361023864 62.4444246,0.974764432 65.0120525,1.76540669 C63.5478975,5.52005488 65.3691635,9.74403408 69.0474065,11.2242319 C72.3685385,12.5600202 76.1539148,11.2242319 77.9394697,8.08332431 C80.1535577,9.59962454 82.2605125,11.3000469 84.2246228,13.1376584 C81.2963128,15.8453374 81.1177573,20.4664428 83.7960896,23.4268385 C86.2244442,26.0623127 90.2240871,26.5316437 93.1881082,24.4738077 C94.5094188,26.8204628 95.687885,29.2754251 96.6520846,31.8025922 C92.8345683,32.9578685 90.6883314,37.0374382 91.8667976,40.8642911 C92.9024194,44.3301202 96.2949737,46.4998736 99.8660834,45.9547276 C100.044639,48.6263042 100.044639,51.3700856 99.8660834,54.0416622 C95.9021516,53.4279216 92.2239086,56.1717029 91.652531,60.1393552 C91.0811535,63.7134915 93.2202482,67.1432182 96.6485135,68.1901874 C95.6843139,70.7173544 94.5058477,73.1723167 93.1845371,75.5189718 C89.8991162,73.2445215 85.3995179,74.0748763 83.1497188,77.3962959 C81.1463262,80.392794 81.5784305,84.4001589 84.2210517,86.8551211 C82.2569413,88.6963428 80.1499866,90.393155 77.9358986,91.9094552 C75.9682171,88.4039135 71.5793233,87.2125347 68.1153468,89.2378786 C65.0084814,91.0068956 63.6871708,94.8337485 65.0084814,98.2273728 C62.4408535,99.0252356 59.8339434,99.6389761 57.1913222,100 Z M68,50 C68,40.064 59.936,32 50,32 C40.064,32 32,40.064 32,50 C32,59.936 40.064,68 50,68 C59.936,68 68,59.936 68,50 Z" id="Shape"></path>
        </g>
    </g>
</svg>