<?xml version="1.0" encoding="UTF-8" standalone="no"?>
<svg width="400px" height="400px" viewBox="0 0 400 400" version="1.1" xmlns="http://www.w3.org/2000/svg" xmlns:xlink="http://www.w3.org/1999/xlink">
    <!-- Generator: Sketch 48 (47235) - http://www.bohemiancoding.com/sketch -->
    <title>Shape</title>
    <desc>Created with Sketch.</desc>
    <defs></defs>
    <g id="Page-1" stroke="none" stroke-width="1" fill="none" fill-rule="evenodd">
        <g id="noun_1287436_cc" fill="#000000" fill-rule="nonzero">
            <path d="M228.765289,400 C227.622534,383.984981 213.766628,371.998989 197.910901,373.154265 C183.783591,374.150691 172.341755,385.717896 171.356129,400 C160.785644,398.555905 150.343719,396.100942 140.073208,392.938373 C145.929828,377.91978 138.644764,361.023864 123.931792,355.103072 C110.647264,349.759919 95.5057584,355.103072 88.363539,367.666703 C79.3643425,361.601502 71.0793679,354.799812 63.2229265,347.449366 C74.9361664,336.61865 75.6503884,318.134229 64.9370592,306.292646 C55.2236407,295.750749 39.2250692,293.873425 27.3689849,302.104769 C22.0837425,292.718149 17.3698777,282.8983 13.5130792,272.789631 C28.6403,268.154085 37.2109633,251.835806 32.6399429,236.528395 C28.4974556,222.665078 14.9272386,213.986064 0.64279975,216.166649 C-0.214266583,205.480342 -0.214266583,194.505217 0.64279975,183.81891 C16.3556825,186.273873 31.0686546,175.298747 33.4970092,159.428138 C35.7825194,145.117152 27.2118561,131.398245 13.4987948,127.210369 C17.3555933,117.1017 22.0694581,107.281851 27.3547005,97.8952309 C40.4963843,106.993032 58.4947773,103.671613 67.4939738,90.3859345 C75.507544,78.3999422 73.7791269,62.3704827 63.2086421,52.5506336 C71.0650835,45.1857468 79.350058,38.3984981 88.3492545,32.3332972 C96.2056959,46.3410231 113.775556,51.1065381 127.631461,43.0196036 C140.058923,35.9435359 145.344166,20.636124 140.058923,7.06162677 C150.343719,3.88461677 160.77136,1.4296545 171.341844,0 C172.4846,16.0150186 186.197661,28.0010109 202.053388,26.8457345 C216.337827,25.8493086 227.779663,14.282104 228.765289,0 C239.335774,1.44409545 249.777698,3.89905773 260.04821,7.06162677 C254.19159,22.0802195 261.476654,38.9761363 276.189626,44.8969277 C289.474154,50.2400809 304.615659,44.8969277 311.757879,32.3332972 C320.614231,38.3984981 329.04205,45.2001877 336.898491,52.5506336 C325.185251,63.3813495 324.471029,81.8657713 335.184359,93.7073541 C344.897777,104.249251 360.896349,106.126575 372.752433,97.8952309 C378.037675,107.281851 382.75154,117.1017 386.608339,127.210369 C371.338273,131.831474 362.753326,148.149753 367.46719,163.457165 C371.609678,177.320481 385.179895,185.999495 399.464334,183.81891 C400.178555,194.505217 400.178555,205.480342 399.464334,216.166649 C383.608606,213.711686 368.895634,224.686812 366.610124,240.557421 C364.324614,254.853966 372.880993,268.572873 386.594054,272.760749 C382.737256,282.869418 378.023391,292.689267 372.738148,302.075887 C359.596465,292.978086 341.598072,296.299505 332.598875,309.585184 C324.585305,321.571176 326.313722,337.600635 336.884207,347.420484 C329.027765,354.785371 320.599946,361.57262 311.743594,367.637821 C303.872868,353.615654 286.317293,348.850139 272.461387,356.951514 C260.033926,364.027582 254.748683,379.334994 260.033926,392.909491 C249.763414,396.100942 239.335774,398.555905 228.765289,400 Z M272,200 C272,160.256 239.744,128 200,128 C160.256,128 128,160.256 128,200 C128,239.744 160.256,272 200,272 C239.744,272 272,239.744 272,200 Z" id="Shape"></path>
        </g>
    </g>
</svg>