<?xml version="1.0" encoding="UTF-8" standalone="no"?>
<svg width="68px" height="68px" viewBox="0 0 68 68" version="1.1" xmlns="http://www.w3.org/2000/svg" xmlns:xlink="http://www.w3.org/1999/xlink">
    <!-- Generator: Sketch 48 (47235) - http://www.bohemiancoding.com/sketch -->
    <title>Group</title>
    <desc>Created with Sketch.</desc>
    <defs></defs>
    <g id="Page-1" stroke="none" stroke-width="1" fill="none" fill-rule="evenodd">
        <g id="Group" fill="#000000" fill-rule="nonzero">
            <path d="M33.996,0.471 C15.533,0.471 0.562,15.44 0.562,33.906 C0.562,52.37 15.533,67.34 33.996,67.34 C52.461,67.34 67.43,52.37 67.43,33.906 C67.43,15.439 52.461,0.471 33.996,0.471 Z M33.996,66.523 C15.982,66.523 1.375,51.92 1.375,33.905 C1.375,15.884 15.982,1.285 33.996,1.285 C52.01,1.285 66.617,15.885 66.617,33.905 C66.617,51.921 52.01,66.523 33.996,66.523 Z" id="Shape"></path>
            <path d="M33.996,2.152 C16.459,2.152 2.246,16.363 2.246,33.905 C2.246,51.445 16.459,65.656 33.996,65.656 C51.535,65.656 65.748,51.445 65.748,33.905 C65.748,16.363 51.535,2.152 33.996,2.152 Z M33.996,47.051 C26.738,47.051 20.85,41.165 20.85,33.905 C20.85,26.643 26.739,20.759 33.996,20.759 C41.256,20.759 47.142,26.643 47.142,33.905 C47.143,41.165 41.256,47.051 33.996,47.051 Z" id="Shape"></path>
            <path d="M33.996,21.743 C27.279,21.743 21.836,27.186 21.836,33.905 C21.836,40.624 27.279,46.066 33.996,46.066 C40.715,46.066 46.158,40.624 46.158,33.905 C46.158,27.186 40.715,21.743 33.996,21.743 Z M33.996,44.891 C27.93,44.891 23.01,39.972 23.01,33.906 C23.01,27.839 27.93,22.919 33.996,22.919 C40.062,22.919 44.982,27.839 44.982,33.906 C44.982,39.972 40.062,44.891 33.996,44.891 Z" id="Shape"></path>
            <path d="M33.996,26.097 C29.684,26.097 26.187,29.593 26.187,33.906 C26.187,38.219 29.683,41.714 33.996,41.714 C38.309,41.714 41.805,38.219 41.805,33.906 C41.805,29.593 38.309,26.097 33.996,26.097 Z M33.996,35.316 C33.217,35.316 32.584,34.684 32.584,33.905 C32.584,33.125 33.217,32.493 33.996,32.493 C34.777,32.493 35.41,33.125 35.41,33.905 C35.41,34.685 34.777,35.316 33.996,35.316 Z" id="Shape"></path>
        </g>
    </g>
</svg>